<svg width="362" height="100" viewBox="0 0 362 100" fill="none" xmlns="http://www.w3.org/2000/svg">
<path d="M40 29.3506H90.6493V80H40V29.3506Z" stroke="#202020" stroke-width="1.6"/>
<path d="M44.6753 24.6753H95.3247V75.3247H44.6753V24.6753Z" stroke="#202020" stroke-width="1.6"/>
<path d="M49.3506 20H100V70.6493H49.3506V20Z" stroke="#202020" stroke-width="1.6"/>
<path d="M131.32 31.02L131.56 36.3H130.528C130.464 35.244 130.272 34.428 129.952 33.852C129.648 33.26 129.208 32.852 128.632 32.628C128.072 32.388 127.36 32.268 126.496 32.268C125.68 32.268 125.064 32.292 124.648 32.34C124.232 32.372 123.96 32.444 123.832 32.556C123.704 32.668 123.64 32.82 123.64 33.012V45.588C123.64 46.276 123.712 46.836 123.856 47.268C124 47.684 124.304 47.996 124.768 48.204C125.232 48.396 125.936 48.508 126.88 48.54V49.5H116.824V48.54C117.784 48.508 118.496 48.396 118.96 48.204C119.424 47.996 119.728 47.684 119.872 47.268C120.032 46.836 120.112 46.276 120.112 45.588V33.012C120.112 32.82 120.056 32.668 119.944 32.556C119.832 32.444 119.6 32.372 119.248 32.34C118.896 32.292 118.36 32.268 117.64 32.268C117.064 32.268 116.512 32.3 115.984 32.364C115.456 32.428 114.992 32.588 114.592 32.844C114.192 33.084 113.872 33.476 113.632 34.02C113.392 34.564 113.256 35.324 113.224 36.3H112.288L112.528 31.02H131.32ZM141.62 33.18V39.276C142.644 39.276 143.468 39.244 144.092 39.18C144.716 39.116 145.196 38.988 145.532 38.796C145.884 38.588 146.132 38.292 146.276 37.908C146.436 37.508 146.548 36.988 146.612 36.348H147.5V43.38H146.612C146.516 42.724 146.38 42.204 146.204 41.82C146.044 41.436 145.796 41.156 145.46 40.98C145.124 40.788 144.652 40.66 144.044 40.596C143.436 40.532 142.628 40.5 141.62 40.5V45.444C141.62 46.132 141.748 46.676 142.004 47.076C142.26 47.476 142.684 47.764 143.276 47.94C143.884 48.1 144.7 48.18 145.724 48.18C146.94 48.18 147.908 48.06 148.628 47.82C149.364 47.58 149.932 47.156 150.332 46.548C150.732 45.94 151.044 45.092 151.268 44.004H152.228L151.844 49.5H135.572V48.54C136.292 48.508 136.828 48.428 137.18 48.3C137.548 48.156 137.788 47.892 137.9 47.508C138.028 47.124 138.092 46.556 138.092 45.804V34.716C138.092 33.964 138.036 33.404 137.924 33.036C137.812 32.652 137.596 32.388 137.276 32.244C136.956 32.1 136.476 32.012 135.836 31.98V31.02H151.004L151.172 35.724H150.14C150.012 34.828 149.78 34.132 149.444 33.636C149.108 33.14 148.604 32.796 147.932 32.604C147.276 32.396 146.38 32.292 145.244 32.292H142.532C142.132 32.292 141.876 32.348 141.764 32.46C141.668 32.556 141.62 32.796 141.62 33.18ZM168.084 49.74L161.412 33.852H161.316V44.916C161.316 45.972 161.38 46.756 161.508 47.268C161.636 47.764 161.892 48.092 162.276 48.252C162.676 48.412 163.268 48.508 164.052 48.54V49.5H156.66V48.54C157.46 48.508 158.052 48.412 158.436 48.252C158.836 48.092 159.1 47.772 159.228 47.292C159.372 46.812 159.444 46.076 159.444 45.084V35.436C159.444 34.524 159.38 33.82 159.252 33.324C159.14 32.828 158.9 32.484 158.532 32.292C158.18 32.084 157.644 31.98 156.924 31.98V31.02H164.196L169.788 45.012H169.884L175.428 31.02H182.436V31.98C181.732 31.98 181.196 32.084 180.828 32.292C180.476 32.484 180.244 32.844 180.132 33.372C180.02 33.884 179.964 34.628 179.964 35.604V44.916C179.964 45.972 180.028 46.756 180.156 47.268C180.284 47.764 180.54 48.092 180.924 48.252C181.324 48.412 181.916 48.508 182.7 48.54V49.5H173.676V48.54C174.476 48.508 175.068 48.412 175.452 48.252C175.852 48.092 176.116 47.772 176.244 47.292C176.372 46.812 176.436 46.076 176.436 45.084V33.852H176.316L169.86 49.74H168.084ZM203.088 36.156C203.088 37.292 202.784 38.26 202.176 39.06C201.568 39.844 200.68 40.444 199.512 40.86C198.344 41.26 196.912 41.46 195.216 41.46H193.176V45.684C193.176 46.5 193.256 47.116 193.416 47.532C193.592 47.932 193.928 48.204 194.424 48.348C194.92 48.476 195.664 48.54 196.656 48.54V49.5H187.128V48.54C187.848 48.508 188.384 48.428 188.736 48.3C189.104 48.156 189.344 47.892 189.456 47.508C189.584 47.124 189.648 46.556 189.648 45.804V34.716C189.648 33.964 189.592 33.404 189.48 33.036C189.384 32.652 189.176 32.388 188.856 32.244C188.536 32.1 188.048 32.012 187.392 31.98V31.02H195.696C198.128 31.02 199.968 31.46 201.216 32.34C202.464 33.204 203.088 34.476 203.088 36.156ZM193.176 32.772V40.02H194.736C196.272 40.02 197.4 39.708 198.12 39.084C198.856 38.444 199.224 37.46 199.224 36.132C199.224 34.932 198.912 34.004 198.288 33.348C197.68 32.692 196.736 32.364 195.456 32.364H193.608C193.32 32.364 193.176 32.5 193.176 32.772ZM207.212 49.5V48.54C207.932 48.508 208.468 48.428 208.82 48.3C209.188 48.156 209.428 47.892 209.54 47.508C209.668 47.124 209.732 46.556 209.732 45.804V34.716C209.732 33.964 209.676 33.404 209.564 33.036C209.452 32.652 209.236 32.388 208.916 32.244C208.596 32.1 208.116 32.012 207.476 31.98V31.02H215.756V31.98C215.036 31.996 214.5 32.084 214.148 32.244C213.796 32.388 213.556 32.66 213.428 33.06C213.316 33.46 213.26 34.068 213.26 34.884V44.94C213.26 45.836 213.388 46.516 213.644 46.98C213.916 47.444 214.364 47.764 214.988 47.94C215.628 48.1 216.5 48.18 217.604 48.18C218.836 48.18 219.812 48.068 220.532 47.844C221.268 47.62 221.828 47.212 222.212 46.62C222.612 46.028 222.932 45.172 223.172 44.052H224.132L223.748 49.5H207.212ZM234.257 33.18V39.276C235.281 39.276 236.105 39.244 236.729 39.18C237.353 39.116 237.833 38.988 238.169 38.796C238.521 38.588 238.769 38.292 238.913 37.908C239.073 37.508 239.185 36.988 239.249 36.348H240.137V43.38H239.249C239.153 42.724 239.017 42.204 238.841 41.82C238.681 41.436 238.433 41.156 238.097 40.98C237.761 40.788 237.289 40.66 236.681 40.596C236.073 40.532 235.265 40.5 234.257 40.5V45.444C234.257 46.132 234.385 46.676 234.641 47.076C234.897 47.476 235.321 47.764 235.913 47.94C236.521 48.1 237.337 48.18 238.361 48.18C239.577 48.18 240.545 48.06 241.265 47.82C242.001 47.58 242.569 47.156 242.969 46.548C243.369 45.94 243.681 45.092 243.905 44.004H244.865L244.481 49.5H228.209V48.54C228.929 48.508 229.465 48.428 229.817 48.3C230.185 48.156 230.425 47.892 230.537 47.508C230.665 47.124 230.729 46.556 230.729 45.804V34.716C230.729 33.964 230.673 33.404 230.561 33.036C230.449 32.652 230.233 32.388 229.913 32.244C229.593 32.1 229.113 32.012 228.473 31.98V31.02H243.641L243.809 35.724H242.777C242.649 34.828 242.417 34.132 242.081 33.636C241.745 33.14 241.241 32.796 240.569 32.604C239.913 32.396 239.017 32.292 237.881 32.292H235.169C234.769 32.292 234.513 32.348 234.401 32.46C234.305 32.556 234.257 32.796 234.257 33.18ZM267.897 31.02L268.137 36.3H267.105C267.041 35.244 266.849 34.428 266.529 33.852C266.225 33.26 265.785 32.852 265.209 32.628C264.649 32.388 263.937 32.268 263.073 32.268C262.257 32.268 261.641 32.292 261.225 32.34C260.809 32.372 260.537 32.444 260.409 32.556C260.281 32.668 260.217 32.82 260.217 33.012V45.588C260.217 46.276 260.289 46.836 260.433 47.268C260.577 47.684 260.881 47.996 261.345 48.204C261.809 48.396 262.513 48.508 263.457 48.54V49.5H253.401V48.54C254.361 48.508 255.073 48.396 255.537 48.204C256.001 47.996 256.305 47.684 256.449 47.268C256.609 46.836 256.689 46.276 256.689 45.588V33.012C256.689 32.82 256.633 32.668 256.521 32.556C256.409 32.444 256.177 32.372 255.825 32.34C255.473 32.292 254.937 32.268 254.217 32.268C253.641 32.268 253.089 32.3 252.561 32.364C252.033 32.428 251.569 32.588 251.169 32.844C250.769 33.084 250.449 33.476 250.209 34.02C249.969 34.564 249.833 35.324 249.801 36.3H248.865L249.105 31.02H267.897ZM282.519 30.78C283.959 30.78 285.295 31.028 286.527 31.524C287.775 32.004 288.863 32.684 289.791 33.564C290.735 34.428 291.463 35.444 291.975 36.612C292.503 37.78 292.767 39.044 292.767 40.404C292.767 41.7 292.503 42.916 291.975 44.052C291.447 45.188 290.711 46.18 289.767 47.028C288.839 47.876 287.751 48.54 286.503 49.02C285.271 49.5 283.943 49.74 282.519 49.74C281.095 49.74 279.759 49.5 278.511 49.02C277.279 48.54 276.191 47.876 275.247 47.028C274.319 46.18 273.591 45.188 273.063 44.052C272.535 42.916 272.271 41.7 272.271 40.404C272.271 39.044 272.527 37.78 273.039 36.612C273.567 35.444 274.295 34.428 275.223 33.564C276.167 32.684 277.255 32.004 278.487 31.524C279.735 31.028 281.079 30.78 282.519 30.78ZM282.519 48.18C283.767 48.18 284.839 47.868 285.735 47.244C286.647 46.62 287.351 45.732 287.847 44.58C288.343 43.412 288.591 42.044 288.591 40.476C288.591 38.812 288.343 37.372 287.847 36.156C287.367 34.94 286.671 34.004 285.759 33.348C284.847 32.676 283.767 32.34 282.519 32.34C281.271 32.34 280.191 32.676 279.279 33.348C278.383 34.004 277.687 34.94 277.191 36.156C276.695 37.372 276.447 38.812 276.447 40.476C276.447 42.044 276.695 43.412 277.191 44.58C277.687 45.732 278.383 46.62 279.279 47.244C280.191 47.868 281.271 48.18 282.519 48.18ZM312.487 49.74L301.855 34.596H301.759V44.916C301.759 45.972 301.815 46.756 301.927 47.268C302.055 47.764 302.295 48.092 302.647 48.252C303.015 48.412 303.551 48.508 304.255 48.54V49.5H297.127V48.54C297.911 48.508 298.495 48.412 298.879 48.252C299.279 48.092 299.543 47.772 299.671 47.292C299.815 46.812 299.887 46.076 299.887 45.084V35.436C299.887 34.524 299.823 33.828 299.695 33.348C299.583 32.868 299.343 32.532 298.975 32.34C298.623 32.132 298.087 32.012 297.367 31.98V31.02H304.063L313.735 44.892H313.831V35.604C313.831 34.548 313.767 33.772 313.639 33.276C313.527 32.764 313.295 32.428 312.943 32.268C312.591 32.092 312.055 31.996 311.335 31.98V31.02H318.463V31.98C317.679 31.996 317.087 32.092 316.687 32.268C316.303 32.428 316.039 32.748 315.895 33.228C315.767 33.708 315.703 34.444 315.703 35.436V49.74H312.487Z" fill="#202020"/>
<path d="M122.32 58.88L122.605 57.95H123.34L123.04 61.745H122.44C122.23 60.825 121.82 60.1 121.21 59.57C120.61 59.04 119.88 58.775 119.02 58.775C118.24 58.775 117.57 58.98 117.01 59.39C116.46 59.79 116.04 60.37 115.75 61.13C115.46 61.88 115.315 62.78 115.315 63.83C115.315 65.37 115.635 66.56 116.275 67.4C116.915 68.24 117.85 68.66 119.08 68.66C120.07 68.66 120.895 68.39 121.555 67.85C122.215 67.3 122.685 66.495 122.965 65.435H123.625V69.5H122.92L122.71 68.315C121.61 69.205 120.275 69.65 118.705 69.65C117.495 69.65 116.44 69.415 115.54 68.945C114.64 68.475 113.94 67.815 113.44 66.965C112.95 66.105 112.705 65.09 112.705 63.92C112.705 63.01 112.855 62.185 113.155 61.445C113.455 60.695 113.875 60.05 114.415 59.51C114.965 58.96 115.62 58.54 116.38 58.25C117.14 57.95 117.975 57.8 118.885 57.8C119.495 57.8 120.065 57.885 120.595 58.055C121.135 58.225 121.71 58.5 122.32 58.88ZM140.954 61.67V64.85C140.954 65.98 140.784 66.9 140.444 67.61C140.114 68.31 139.594 68.825 138.884 69.155C138.174 69.485 137.244 69.65 136.094 69.65C135.024 69.65 134.144 69.505 133.454 69.215C132.764 68.915 132.254 68.45 131.924 67.82C131.604 67.19 131.444 66.385 131.444 65.405V61.295C131.444 60.775 131.434 60.36 131.414 60.05C131.404 59.74 131.379 59.5 131.339 59.33C131.299 59.15 131.244 59.01 131.174 58.91C131.084 58.77 130.954 58.675 130.784 58.625C130.614 58.575 130.354 58.55 130.004 58.55V57.95H135.389V58.55C134.969 58.55 134.659 58.575 134.459 58.625C134.259 58.665 134.104 58.75 133.994 58.88C133.864 59.04 133.774 59.29 133.724 59.63C133.674 59.96 133.649 60.515 133.649 61.295V65.225C133.649 66.355 133.894 67.195 134.384 67.745C134.874 68.295 135.619 68.57 136.619 68.57C137.659 68.57 138.434 68.285 138.944 67.715C139.454 67.145 139.709 66.285 139.709 65.135V61.67C139.709 60.84 139.679 60.23 139.619 59.84C139.559 59.44 139.444 59.145 139.274 58.955C139.144 58.815 138.964 58.715 138.734 58.655C138.514 58.585 138.209 58.55 137.819 58.55V57.95H142.679V58.55C142.309 58.55 142.024 58.58 141.824 58.64C141.624 58.69 141.469 58.785 141.359 58.925C141.209 59.115 141.104 59.415 141.044 59.825C140.984 60.225 140.954 60.84 140.954 61.67ZM149.082 69.5L148.857 65.675H149.442C149.582 66.615 149.962 67.36 150.582 67.91C151.212 68.46 151.977 68.735 152.877 68.735C153.627 68.735 154.232 68.565 154.692 68.225C155.152 67.875 155.382 67.425 155.382 66.875C155.382 66.555 155.307 66.285 155.157 66.065C155.017 65.845 154.742 65.63 154.332 65.42C153.932 65.2 153.342 64.945 152.562 64.655C151.792 64.355 151.152 64.025 150.642 63.665C150.132 63.305 149.752 62.9 149.502 62.45C149.252 62 149.127 61.51 149.127 60.98C149.127 60.35 149.282 59.8 149.592 59.33C149.912 58.85 150.347 58.475 150.897 58.205C151.457 57.935 152.102 57.8 152.832 57.8C153.822 57.8 154.747 58.12 155.607 58.76L155.877 58.01H156.237L156.402 61.25H155.817C155.577 60.43 155.202 59.805 154.692 59.375C154.182 58.935 153.592 58.715 152.922 58.715C152.312 58.715 151.812 58.87 151.422 59.18C151.032 59.48 150.837 59.87 150.837 60.35C150.837 60.63 150.902 60.875 151.032 61.085C151.172 61.285 151.427 61.485 151.797 61.685C152.167 61.875 152.697 62.1 153.387 62.36C154.317 62.71 155.072 63.08 155.652 63.47C156.232 63.85 156.652 64.265 156.912 64.715C157.182 65.155 157.317 65.655 157.317 66.215C157.317 66.885 157.127 67.48 156.747 68C156.367 68.52 155.842 68.925 155.172 69.215C154.502 69.505 153.727 69.65 152.847 69.65C152.257 69.65 151.717 69.57 151.227 69.41C150.737 69.24 150.242 68.97 149.742 68.6L149.442 69.5H149.082ZM175.201 57.95L175.351 61.25H174.706C174.666 60.59 174.546 60.08 174.346 59.72C174.156 59.35 173.881 59.095 173.521 58.955C173.171 58.805 172.726 58.73 172.186 58.73C171.676 58.73 171.291 58.745 171.031 58.775C170.771 58.795 170.601 58.84 170.521 58.91C170.441 58.98 170.401 59.075 170.401 59.195V67.055C170.401 67.485 170.446 67.835 170.536 68.105C170.626 68.365 170.816 68.56 171.106 68.69C171.396 68.81 171.836 68.88 172.426 68.9V69.5H166.141V68.9C166.741 68.88 167.186 68.81 167.476 68.69C167.766 68.56 167.956 68.365 168.046 68.105C168.146 67.835 168.196 67.485 168.196 67.055V59.195C168.196 59.075 168.161 58.98 168.091 58.91C168.021 58.84 167.876 58.795 167.656 58.775C167.436 58.745 167.101 58.73 166.651 58.73C166.291 58.73 165.946 58.75 165.616 58.79C165.286 58.83 164.996 58.93 164.746 59.09C164.496 59.24 164.296 59.485 164.146 59.825C163.996 60.165 163.911 60.64 163.891 61.25H163.306L163.456 57.95H175.201ZM187.79 57.8C188.69 57.8 189.525 57.955 190.295 58.265C191.075 58.565 191.755 58.99 192.335 59.54C192.925 60.08 193.38 60.715 193.7 61.445C194.03 62.175 194.195 62.965 194.195 63.815C194.195 64.625 194.03 65.385 193.7 66.095C193.37 66.805 192.91 67.425 192.32 67.955C191.74 68.485 191.06 68.9 190.28 69.2C189.51 69.5 188.68 69.65 187.79 69.65C186.9 69.65 186.065 69.5 185.285 69.2C184.515 68.9 183.835 68.485 183.245 67.955C182.665 67.425 182.21 66.805 181.88 66.095C181.55 65.385 181.385 64.625 181.385 63.815C181.385 62.965 181.545 62.175 181.865 61.445C182.195 60.715 182.65 60.08 183.23 59.54C183.82 58.99 184.5 58.565 185.27 58.265C186.05 57.955 186.89 57.8 187.79 57.8ZM187.79 68.675C188.57 68.675 189.24 68.48 189.8 68.09C190.37 67.7 190.81 67.145 191.12 66.425C191.43 65.695 191.585 64.84 191.585 63.86C191.585 62.82 191.43 61.92 191.12 61.16C190.82 60.4 190.385 59.815 189.815 59.405C189.245 58.985 188.57 58.775 187.79 58.775C187.01 58.775 186.335 58.985 185.765 59.405C185.205 59.815 184.77 60.4 184.46 61.16C184.15 61.92 183.995 62.82 183.995 63.86C183.995 64.84 184.15 65.695 184.46 66.425C184.77 67.145 185.205 67.7 185.765 68.09C186.335 68.48 187.01 68.675 187.79 68.675ZM207.51 69.65L203.34 59.72H203.28V66.635C203.28 67.295 203.32 67.785 203.4 68.105C203.48 68.415 203.64 68.62 203.88 68.72C204.13 68.82 204.5 68.88 204.99 68.9V69.5H200.37V68.9C200.87 68.88 201.24 68.82 201.48 68.72C201.73 68.62 201.895 68.42 201.975 68.12C202.065 67.82 202.11 67.36 202.11 66.74V60.71C202.11 60.14 202.07 59.7 201.99 59.39C201.92 59.08 201.77 58.865 201.54 58.745C201.32 58.615 200.985 58.55 200.535 58.55V57.95H205.08L208.575 66.695H208.635L212.1 57.95H216.48V58.55C216.04 58.55 215.705 58.615 215.475 58.745C215.255 58.865 215.11 59.09 215.04 59.42C214.97 59.74 214.935 60.205 214.935 60.815V66.635C214.935 67.295 214.975 67.785 215.055 68.105C215.135 68.415 215.295 68.62 215.535 68.72C215.785 68.82 216.155 68.88 216.645 68.9V69.5H211.005V68.9C211.505 68.88 211.875 68.82 212.115 68.72C212.365 68.62 212.53 68.42 212.61 68.12C212.69 67.82 212.73 67.36 212.73 66.74V59.72H212.655L208.62 69.65H207.51ZM232.097 69.5V68.9C232.547 68.88 232.882 68.83 233.102 68.75C233.332 68.66 233.482 68.495 233.552 68.255C233.632 68.015 233.672 67.66 233.672 67.19V60.26C233.672 59.79 233.637 59.44 233.567 59.21C233.507 58.97 233.377 58.805 233.177 58.715C232.977 58.625 232.672 58.57 232.262 58.55V57.95H237.437V58.55C236.987 58.56 236.652 58.615 236.432 58.715C236.212 58.805 236.062 58.975 235.982 59.225C235.912 59.475 235.877 59.855 235.877 60.365V63.125H241.442V60.26C241.442 59.79 241.402 59.44 241.322 59.21C241.252 58.97 241.102 58.805 240.872 58.715C240.652 58.625 240.317 58.57 239.867 58.55V57.95H245.057V58.55C244.657 58.56 244.352 58.615 244.142 58.715C243.942 58.805 243.807 58.975 243.737 59.225C243.677 59.475 243.647 59.855 243.647 60.365V67.085C243.647 67.595 243.682 67.98 243.752 68.24C243.832 68.49 243.982 68.66 244.202 68.75C244.432 68.83 244.772 68.88 245.222 68.9V69.5H239.717V68.9C240.207 68.88 240.572 68.83 240.812 68.75C241.062 68.66 241.227 68.495 241.307 68.255C241.397 68.015 241.442 67.66 241.442 67.19V64.055H235.877V67.085C235.877 67.595 235.917 67.98 235.997 68.24C236.077 68.49 236.237 68.66 236.477 68.75C236.727 68.83 237.097 68.88 237.587 68.9V69.5H232.097ZM257.906 57.8C258.806 57.8 259.641 57.955 260.411 58.265C261.191 58.565 261.871 58.99 262.451 59.54C263.041 60.08 263.496 60.715 263.816 61.445C264.146 62.175 264.311 62.965 264.311 63.815C264.311 64.625 264.146 65.385 263.816 66.095C263.486 66.805 263.026 67.425 262.436 67.955C261.856 68.485 261.176 68.9 260.396 69.2C259.626 69.5 258.796 69.65 257.906 69.65C257.016 69.65 256.181 69.5 255.401 69.2C254.631 68.9 253.951 68.485 253.361 67.955C252.781 67.425 252.326 66.805 251.996 66.095C251.666 65.385 251.501 64.625 251.501 63.815C251.501 62.965 251.661 62.175 251.981 61.445C252.311 60.715 252.766 60.08 253.346 59.54C253.936 58.99 254.616 58.565 255.386 58.265C256.166 57.955 257.006 57.8 257.906 57.8ZM257.906 68.675C258.686 68.675 259.356 68.48 259.916 68.09C260.486 67.7 260.926 67.145 261.236 66.425C261.546 65.695 261.701 64.84 261.701 63.86C261.701 62.82 261.546 61.92 261.236 61.16C260.936 60.4 260.501 59.815 259.931 59.405C259.361 58.985 258.686 58.775 257.906 58.775C257.126 58.775 256.451 58.985 255.881 59.405C255.321 59.815 254.886 60.4 254.576 61.16C254.266 61.92 254.111 62.82 254.111 63.86C254.111 64.84 254.266 65.695 254.576 66.425C254.886 67.145 255.321 67.7 255.881 68.09C256.451 68.48 257.126 68.675 257.906 68.675ZM277.626 69.65L273.456 59.72H273.396V66.635C273.396 67.295 273.436 67.785 273.516 68.105C273.596 68.415 273.756 68.62 273.996 68.72C274.246 68.82 274.616 68.88 275.106 68.9V69.5H270.486V68.9C270.986 68.88 271.356 68.82 271.596 68.72C271.846 68.62 272.011 68.42 272.091 68.12C272.181 67.82 272.226 67.36 272.226 66.74V60.71C272.226 60.14 272.186 59.7 272.106 59.39C272.036 59.08 271.886 58.865 271.656 58.745C271.436 58.615 271.101 58.55 270.651 58.55V57.95H275.196L278.691 66.695H278.751L282.216 57.95H286.596V58.55C286.156 58.55 285.821 58.615 285.591 58.745C285.371 58.865 285.226 59.09 285.156 59.42C285.086 59.74 285.051 60.205 285.051 60.815V66.635C285.051 67.295 285.091 67.785 285.171 68.105C285.251 68.415 285.411 68.62 285.651 68.72C285.901 68.82 286.271 68.88 286.761 68.9V69.5H281.121V68.9C281.621 68.88 281.991 68.82 282.231 68.72C282.481 68.62 282.646 68.42 282.726 68.12C282.806 67.82 282.846 67.36 282.846 66.74V59.72H282.771L278.736 69.65H277.626ZM296.759 59.3V63.11C297.399 63.11 297.914 63.09 298.304 63.05C298.694 63.01 298.994 62.93 299.204 62.81C299.424 62.68 299.579 62.495 299.669 62.255C299.769 62.005 299.839 61.68 299.879 61.28H300.434V65.675H299.879C299.819 65.265 299.734 64.94 299.624 64.7C299.524 64.46 299.369 64.285 299.159 64.175C298.949 64.055 298.654 63.975 298.274 63.935C297.894 63.895 297.389 63.875 296.759 63.875V66.965C296.759 67.395 296.839 67.735 296.999 67.985C297.159 68.235 297.424 68.415 297.794 68.525C298.174 68.625 298.684 68.675 299.324 68.675C300.084 68.675 300.689 68.6 301.139 68.45C301.599 68.3 301.954 68.035 302.204 67.655C302.454 67.275 302.649 66.745 302.789 66.065H303.389L303.149 69.5H292.979V68.9C293.429 68.88 293.764 68.83 293.984 68.75C294.214 68.66 294.364 68.495 294.434 68.255C294.514 68.015 294.554 67.66 294.554 67.19V60.26C294.554 59.79 294.519 59.44 294.449 59.21C294.379 58.97 294.244 58.805 294.044 58.715C293.844 58.625 293.544 58.57 293.144 58.55V57.95H302.624L302.729 60.89H302.084C302.004 60.33 301.859 59.895 301.649 59.585C301.439 59.275 301.124 59.06 300.704 58.94C300.294 58.81 299.734 58.745 299.024 58.745H297.329C297.079 58.745 296.919 58.78 296.849 58.85C296.789 58.91 296.759 59.06 296.759 59.3ZM310.194 69.5L309.969 65.675H310.554C310.694 66.615 311.074 67.36 311.694 67.91C312.324 68.46 313.089 68.735 313.989 68.735C314.739 68.735 315.344 68.565 315.804 68.225C316.264 67.875 316.494 67.425 316.494 66.875C316.494 66.555 316.419 66.285 316.269 66.065C316.129 65.845 315.854 65.63 315.444 65.42C315.044 65.2 314.454 64.945 313.674 64.655C312.904 64.355 312.264 64.025 311.754 63.665C311.244 63.305 310.864 62.9 310.614 62.45C310.364 62 310.239 61.51 310.239 60.98C310.239 60.35 310.394 59.8 310.704 59.33C311.024 58.85 311.459 58.475 312.009 58.205C312.569 57.935 313.214 57.8 313.944 57.8C314.934 57.8 315.859 58.12 316.719 58.76L316.989 58.01H317.349L317.514 61.25H316.929C316.689 60.43 316.314 59.805 315.804 59.375C315.294 58.935 314.704 58.715 314.034 58.715C313.424 58.715 312.924 58.87 312.534 59.18C312.144 59.48 311.949 59.87 311.949 60.35C311.949 60.63 312.014 60.875 312.144 61.085C312.284 61.285 312.539 61.485 312.909 61.685C313.279 61.875 313.809 62.1 314.499 62.36C315.429 62.71 316.184 63.08 316.764 63.47C317.344 63.85 317.764 64.265 318.024 64.715C318.294 65.155 318.429 65.655 318.429 66.215C318.429 66.885 318.239 67.48 317.859 68C317.479 68.52 316.954 68.925 316.284 69.215C315.614 69.505 314.839 69.65 313.959 69.65C313.369 69.65 312.829 69.57 312.339 69.41C311.849 69.24 311.354 68.97 310.854 68.6L310.554 69.5H310.194Z" fill="#202020"/>
</svg>
